<?xml version="1.0" encoding="utf-8"?>
<!-- Generator: Adobe Illustrator 26.0.2, SVG Export Plug-In . SVG Version: 6.00 Build 0)  -->
<svg version="1.1" id="Livello_1" xmlns="http://www.w3.org/2000/svg" xmlns:xlink="http://www.w3.org/1999/xlink" x="0px" y="0px"
	 viewBox="0 0 384 384" style="enable-background:new 0 0 384 384;" xml:space="preserve">
<g>
	<path d="M217.7,372.7c-6.7,0-11.7-4.4-12.6-10.8c-3.5-24.5-7-48.9-10.5-73.4c-3.9-27.1-7.7-54.1-11.5-81.2
		c-0.4-2.9-1.3-4.2-4.4-4.6c-32.1-4.5-64.2-9.1-96.2-13.6c-19.2-2.7-38.5-5.5-57.7-8.3c-6.2-0.9-10.4-4.7-11.2-10.3
		c-0.8-5.5,2.2-10.5,8-13C55,143,88.4,128.7,121.8,114.3c77.5-33.3,155-66.6,232.5-99.8c8.5-3.6,16.1-0.5,18.1,7.5
		c0.9,3.5-0.3,6.6-1.6,9.8c-19.8,46.3-39.6,92.7-59.5,139c-27.4,64.1-54.9,128.2-82.2,192.4C226.8,368.7,223.4,372.4,217.7,372.7z
		 M71,162.2c0.1,0.3,0.2,0.6,0.3,0.9c7.5,1.1,15,2.2,22.5,3.3c33.6,4.8,67.1,9.6,100.7,14.4c5.8,0.8,9.7,4.8,10.6,10.6
		c4.8,33.5,9.5,67,14.3,100.5c1.1,7.7,2.2,15.4,3.3,23.2c0.3,0,0.6,0.1,0.8,0.1c38-88.9,76.1-177.8,114.4-267.5
		C248.4,86.1,159.7,124.2,71,162.2z"/>
</g>
</svg>
