<?xml version="1.0" standalone="no"?>
<!DOCTYPE svg PUBLIC "-//W3C//DTD SVG 20010904//EN"
 "http://www.w3.org/TR/2001/REC-SVG-20010904/DTD/svg10.dtd">
<svg version="1.0" xmlns="http://www.w3.org/2000/svg"
 width="603.000000pt" height="603.000000pt" viewBox="0 0 603.000000 603.000000"
 preserveAspectRatio="xMidYMid meet">
<metadata>
Created by potrace 1.14, written by Peter Selinger 2001-2017
</metadata>
<g transform="translate(0.000000,603.000000) scale(0.100000,-0.100000)"
fill="#000000" stroke="none">
<path d="M4099 5816 c-2 -2 -33 -7 -69 -10 -102 -11 -112 -13 -196 -35 -429
-117 -781 -409 -968 -806 -34 -71 -96 -250 -96 -276 0 -25 -6 -27 -90 -34
-281 -21 -509 -79 -719 -181 -133 -65 -167 -86 -276 -170 -310 -238 -502 -601
-560 -1059 -13 -101 -13 -495 0 -565 38 -208 48 -255 60 -290 l14 -41 -63 -80
c-212 -268 -268 -643 -144 -959 66 -169 171 -306 323 -426 63 -49 75 -56 160
-98 274 -133 597 -131 868 5 162 82 307 217 394 365 29 49 56 94 60 101 5 7
73 13 203 17 107 3 206 8 220 10 14 2 48 7 75 10 213 24 443 88 635 178 323
151 536 375 681 713 20 46 61 185 75 250 7 39 16 80 19 91 l5 22 -269 -1 -268
0 -17 -76 c-154 -676 -557 -1031 -1187 -1044 -82 -1 -113 1 -112 10 17 89 24
155 25 227 3 537 -439 978 -977 977 -55 -1 -109 -3 -120 -5 -11 -2 -45 -7 -75
-11 -30 -4 -57 -8 -59 -9 -21 -6 -33 393 -18 574 8 90 9 96 33 230 54 295 175
554 352 751 152 168 417 298 667 325 53 6 54 6 49 -17 -6 -29 -6 -256 0 -284
2 -11 7 -45 11 -75 9 -74 49 -229 82 -315 145 -383 469 -703 862 -851 72 -27
195 -61 251 -70 19 -3 46 -8 60 -11 46 -9 314 -11 390 -2 478 59 907 358 1129
789 219 425 222 918 8 1345 -202 405 -589 697 -1041 787 -88 17 -374 35 -387
24z m278 -71 c167 -18 373 -87 528 -176 484 -277 758 -800 711 -1361 -3 -42
-8 -83 -11 -90 -2 -7 -6 -29 -9 -48 -8 -53 -53 -203 -82 -273 -171 -409 -532
-720 -964 -832 -138 -36 -405 -52 -520 -31 -36 6 -69 12 -129 22 -19 3 -75 19
-124 35 -364 119 -665 377 -836 717 -33 66 -111 270 -110 287 0 3 -4 29 -10
58 -6 28 -13 68 -16 87 -9 47 -14 296 -8 341 l5 36 76 -2 c362 -14 631 -88
816 -224 217 -161 388 -448 461 -775 17 -74 18 -76 49 -78 201 -9 331 23 417
104 44 42 66 83 64 123 -6 137 -78 253 -296 476 -113 115 -174 167 -260 222
-63 40 -240 131 -279 142 -27 8 -160 96 -160 106 0 3 6 6 13 7 6 0 48 3 92 7
112 9 213 -12 386 -80 193 -76 239 -84 423 -79 83 3 185 5 226 4 72 0 88 -2
154 -16 51 -11 113 -43 152 -80 43 -40 63 -51 82 -48 6 1 17 2 22 3 20 2 9 49
-22 92 -35 48 -92 113 -151 172 -62 61 -88 67 -296 72 -207 4 -206 4 -416 46
-229 46 -245 60 -183 150 71 105 236 172 434 178 86 3 104 11 104 47 0 30 -28
38 -135 38 -179 0 -265 -29 -450 -154 -141 -95 -234 -130 -436 -165 -87 -15
-218 -37 -239 -40 -41 -6 -114 -17 -130 -20 -8 -2 -37 -6 -65 -9 -27 -4 -95
-13 -150 -21 -102 -15 -145 -21 -227 -31 l-48 -6 16 53 c68 228 187 430 354
599 96 98 170 155 285 225 174 105 388 176 575 191 36 3 66 7 68 8 4 5 188 -2
249 -9z m-2312 -3178 c11 -3 40 -10 65 -16 259 -67 473 -242 594 -486 58 -119
87 -233 91 -365 3 -90 0 -131 -19 -240 -4 -19 -32 -15 -111 15 -289 109 -569
277 -747 446 -133 129 -237 298 -262 431 -2 13 -5 28 -6 33 -6 26 0 36 18 26
10 -5 56 -17 102 -25 154 -30 229 -79 255 -170 18 -61 45 -84 68 -58 24 27 29
77 11 124 -30 82 -35 75 59 77 57 1 97 -3 121 -13 41 -17 43 -19 105 -94 42
-50 44 -52 62 -36 53 48 -10 180 -105 219 -19 8 -85 17 -152 20 -234 10 -566
100 -436 117 37 6 262 2 287 -5z m-623 -357 c62 -92 102 -196 93 -245 -3 -16
-24 -91 -47 -165 -46 -153 -51 -236 -24 -385 2 -11 7 -42 10 -70 11 -77 13
-86 61 -361 16 -88 26 -115 53 -146 11 -13 19 -15 27 -8 12 10 12 41 1 114
-11 72 -19 200 -20 326 -2 138 1 180 13 180 4 0 37 -27 73 -59 66 -59 110 -78
147 -66 48 15 34 57 -36 108 -60 44 -85 78 -108 147 -24 72 -23 121 5 159 41
59 48 58 160 -27 177 -134 262 -191 360 -240 144 -72 324 -137 454 -164 32 -7
61 -18 63 -26 9 -23 -90 -173 -167 -251 -134 -137 -293 -225 -475 -262 -130
-27 -308 -21 -428 15 -320 95 -550 330 -639 653 -18 65 -22 105 -22 233 1 139
3 164 27 243 15 48 41 116 58 150 29 59 100 170 104 165 2 -2 5 -28 9 -58 6
-61 10 -82 27 -154 6 -27 12 -81 13 -120 1 -58 -4 -82 -27 -134 -16 -34 -32
-85 -36 -112 -9 -55 -7 -55 58 -6 63 47 108 138 117 235 3 31 7 133 9 226 2
94 4 176 6 183 5 24 24 5 81 -78z"/>
</g>
</svg>
